<?xml version="1.0" encoding="utf-8"?>
<!-- Generator: Adobe Illustrator 24.2.1, SVG Export Plug-In . SVG Version: 6.00 Build 0)  -->
<svg version="1.1" id="Layer_1" xmlns="http://www.w3.org/2000/svg" xmlns:xlink="http://www.w3.org/1999/xlink" x="0px" y="0px"
	 viewBox="0 0 342.01 392.35" style="enable-background:new 0 0 342.01 392.35;" xml:space="preserve">
<style type="text/css">
	.st0{fill:url(#SVGID_1_);}
	.st1{fill:none;}
	.st2{fill:url(#SVGID_2_);}
	.st3{fill:#27306C;}
	.st4{fill:#FFFFFF;}
	.st5{fill:#FEF48F;}
	.st6{fill:#D2D3D4;}
</style>
<g>
	<linearGradient id="SVGID_1_" gradientUnits="userSpaceOnUse" x1="56.0586" y1="-20.9894" x2="292.6953" y2="318.7961">
		<stop  offset="0" style="stop-color:#FFFFFF"/>
		<stop  offset="0.3252" style="stop-color:#ACACAC"/>
		<stop  offset="0.6994" style="stop-color:#FFFFFF"/>
		<stop  offset="1" style="stop-color:#E0E0E0"/>
	</linearGradient>
	<path class="st0" d="M342.01,237.05v3.23v1.59l-0.23,1.57c-0.31,2.12-3.31,21.17-13.17,38.42c-4.42,7.73-44.54,74.92-118.71,102.75
		c0,0-13.87,4.86-17.89,5.66c-3.45,0.75-10.31,1.95-19.14,2.07c-0.32,0.01-0.62,0.01-0.93,0.01l-0.48,0h-0.34h-0.17h-0.11h-0.28
		l-0.48,0c-0.3,0-0.61,0-0.82-0.01c-8.96-0.12-15.81-1.32-19.26-2.08c-3.97-0.79-17.89-5.66-17.89-5.66
		C57.92,356.78,17.81,289.59,13.4,281.86c-9.86-17.25-12.86-36.3-13.17-38.42L0,241.87v-1.59V35.68c0-9.53,3.71-18.49,10.45-25.22
		C17.18,3.71,26.14,0,35.68,0h270.66c18.38,0,33.64,13.78,35.49,32.05c0.12,1.2,0.18,2.42,0.18,3.63V237.05z"/>
	<path class="st1" d="M306.33,21.84L306.33,21.84H35.68h0c-3.82,0-7.28,1.55-9.78,4.05c-2.5,2.5-4.05,5.96-4.05,9.78v204.6
		c0,0,2.43,16.59,10.52,30.74c7.76,13.58,46.06,72.18,112.01,94.78c0,0,7.04,2.48,10.08,3.08c2.47,0.55,7.85,1.52,15.12,1.62
		c0.17,0,0.34,0,0.51,0c0.25,0,0.5,0,0.76,0c0.06,0,0.11,0,0.17,0c0.06,0,0.12,0,0.17,0c0.25,0,0.5,0,0.76,0c0.17,0,0.34,0,0.51,0
		c7.26-0.1,12.64-1.07,15.11-1.62c3.05-0.6,10.09-3.08,10.09-3.08c65.95-22.61,104.24-81.2,112-94.78
		c8.09-14.16,10.52-30.74,10.52-30.74v-3.23V35.68c0-0.48-0.02-0.95-0.07-1.42C319.39,27.29,313.5,21.84,306.33,21.84z"/>
	<linearGradient id="SVGID_2_" gradientUnits="userSpaceOnUse" x1="53.0922" y1="-25.2488" x2="295.4822" y2="322.7979">
		<stop  offset="0" style="stop-color:#FFFFFF"/>
		<stop  offset="0.3252" style="stop-color:#ACACAC"/>
		<stop  offset="0.6994" style="stop-color:#FFFFFF"/>
		<stop  offset="1" style="stop-color:#E0E0E0"/>
	</linearGradient>
	<path class="st2" d="M306.33,0H35.68c-9.53,0-18.49,3.71-25.23,10.45C3.71,17.19,0,26.15,0,35.68v204.6v1.59l0.23,1.57
		c0.31,2.12,3.31,21.17,13.17,38.42c4.42,7.73,44.53,74.92,118.71,102.75c0,0,13.91,4.87,17.89,5.66c3.45,0.75,10.3,1.95,19.26,2.08
		c0.2,0.01,0.51,0.01,0.82,0.01l0.48,0h0.28h0.11h0.17h0.34l0.48,0c0.3,0,0.61,0,0.93-0.01c8.84-0.12,15.7-1.32,19.14-2.07
		c4.03-0.8,17.89-5.66,17.89-5.66c74.17-27.83,114.29-95.02,118.71-102.75c9.86-17.25,12.86-36.3,13.17-38.42l0.23-1.57v-1.59v-3.23
		V35.68c0-1.21-0.06-2.43-0.18-3.63C339.97,13.78,324.71,0,306.33,0z M320.17,237.05v3.23c0,0-2.43,16.59-10.52,30.74
		c-7.76,13.58-46.06,72.18-112,94.78c0,0-7.04,2.48-10.09,3.08c-2.47,0.55-7.85,1.52-15.11,1.62c-0.17,0-0.34,0-0.51,0
		c-0.25,0-0.5,0-0.76,0c-0.06,0-0.11,0-0.17,0c-0.06,0-0.12,0-0.17,0c-0.25,0-0.5,0-0.76,0c-0.17,0-0.34,0-0.51,0
		c-7.27-0.1-12.64-1.07-15.12-1.62c-3.04-0.59-10.08-3.08-10.08-3.08C78.42,343.2,40.12,284.6,32.36,271.02
		c-8.09-14.16-10.52-30.74-10.52-30.74V35.68c0-3.82,1.55-7.28,4.05-9.78c2.5-2.5,5.96-4.05,9.78-4.05h0h270.66h0
		c7.17,0,13.05,5.44,13.76,12.42c0.05,0.47,0.07,0.94,0.07,1.42V237.05z"/>
</g>
<g>
	<path class="st3" d="M171.94,370.75h-1.86c-0.17,0-0.34,0-0.51,0c-7.29-0.1-12.63-1.06-15.17-1.63c-3.3-0.64-10.16-3.1-10.16-3.1
		c-69.97-24.02-107.98-87.69-112.08-94.88c-8.02-14.04-10.52-30.67-10.55-30.83l0-204.64c0-3.76,1.46-7.3,4.12-9.96
		c2.66-2.66,6.19-4.12,9.96-4.12h270.66c7.25,0,13.28,5.44,14.01,12.64c0.05,0.47,0.07,0.96,0.07,1.44v204.6
		c-0.03,0.2-2.53,16.83-10.55,30.87c-4.11,7.18-42.12,70.86-112.08,94.88c0,0-6.86,2.46-10.18,3.11c-2.54,0.56-7.89,1.52-15.16,1.62
		C172.28,370.75,172.11,370.75,171.94,370.75z"/>
	<rect x="33.57" y="32.46" class="st4" width="10.32" height="32.46"/>
	<polygon class="st4" points="56.48,39.44 41.92,39.44 41.92,32.46 58.75,32.46 	"/>
	<rect x="39.64" y="46.27" class="st4" width="15.62" height="6.98"/>
	<polygon class="st4" points="159.23,58.25 159.19,64.93 178.76,64.93 170.13,32.46 162.78,32.46 159.82,32.46 152.46,32.46 
		143.84,64.93 154.15,64.93 161.3,38.03 166.66,58.2 	"/>
	<path class="st4" d="M79,40.2h12.21l-1.98,6.07h-5.61v18.66h-9.4V44.9C74.23,44.9,74.32,40.2,79,40.2z"/>
	<path class="st4" d="M276.89,40.2v18.05h-5.76V40.2h-9.41v20.02c0,0,0.09,4.7,4.77,4.7h10.4h9.4v-6.67V40.2H276.89z"/>
	<path class="st4" d="M243.21,64.92V46.87h5.76v18.05h9.41V44.9c0,0-0.09-4.7-4.77-4.7h-10.4h-9.41v6.67v18.05H243.21z"/>
	<path class="st5" d="M292.38,64.93"/>
	<path class="st4" d="M123.27,65.13h7.43l2.33-7.14h-5.31V46.27h2.93l1.98-6.07h-4.91v-3.69h-9.4v3.69h-0.68l-1.98,6.07h2.66v14.36
		C118.32,60.63,118.37,65.23,123.27,65.13z"/>
	<path class="st4" d="M109.9,49.43h-0.08l0.02-0.02h-8.14c-0.17,0-1.31,0.16-1.31-1.16c0-1.67,1.11-1.52,1.11-1.52h10.72l2.2-6.75
		H96.85c-4.1,0-4.59,2.28-4.55,4.13v7.24c0,0-0.2,4.03,3.8,4.2h0.08l-0.02,0.02h8.14c0.17,0,1.31-0.16,1.31,1.16
		c0,1.67-1.11,1.52-1.11,1.52H93.79L91.59,65h17.56c4.1,0,4.59-2.28,4.55-4.13v-7.24C113.71,53.62,113.91,49.59,109.9,49.43z"/>
	<path class="st4" d="M103,60.48"/>
	<path class="st4" d="M208.02,44.33v16.61c0,0,0.83,4.16,4.78,4.2h16.26l2.32-7.12h-13.95v-3.29l0.11,0.1h8.21
		c3.64-0.15,4.33-3.82,4.33-3.82v-6.58c0.04-1.69-1.28-3.76-5.01-3.76h-12.95C207.75,40.69,208.02,44.33,208.02,44.33z
		 M222.09,49.79h-4.66v-3.51h4.66V49.79z"/>
	<path class="st4" d="M289.63,44.33v16.61c0,0,0.83,4.16,4.78,4.2h16.26l2.32-7.12h-13.95v-3.29l0.11,0.1h8.21
		c3.64-0.15,4.33-3.82,4.33-3.82v-6.58c0.04-1.69-1.28-3.76-5.01-3.76h-12.95C289.36,40.69,289.63,44.33,289.63,44.33z M303.7,49.79
		h-4.67v-3.51h4.67V49.79z"/>
	<path class="st4" d="M188.15,65.13l11.6,0.05l7.16-24.47l-10.1-0.04l-4.43,17.28l-4.07-17.28l-9.22,0.04l4.68,19.77
		C183.75,60.47,184.41,65.13,188.15,65.13z"/>
	<path class="st4" d="M137.57,330.75v-13.91h4.44v13.91h7.25v-15.43c0,0-0.07-3.62-3.68-3.62h-8.01h-7.25v5.14v13.91H137.57z"/>
	<path class="st4" d="M189.75,330.75v-13.91h4.44v13.91h7.25v-15.43c0,0-0.07-3.62-3.68-3.62h-8.01l0.02-7.71h-7.27v12.85v13.91
		H189.75z"/>
	<path class="st4" d="M208.76,330.91h5.73l1.8-5.5h-4.09v-9.04h2.26l1.52-4.67h-3.78v-2.85h-7.25v2.85h-0.53l-1.53,4.67h2.05v11.07
		C204.95,327.44,204.98,330.98,208.76,330.91z"/>
	<g>
		<rect x="151.58" y="304.8" class="st4" width="7.72" height="4.68"/>
		<rect x="151.58" y="311.87" class="st4" width="7.72" height="18.88"/>
	</g>
	<g>
		<rect x="61.17" y="31.25" class="st4" width="10.12" height="6.13"/>
		<rect x="61.17" y="40.52" class="st4" width="10.12" height="24.77"/>
	</g>
	<path class="st4" d="M230.87,318.81h-0.07l0.01-0.02h-6.28c-0.12,0-1.01,0.13-1.01-0.9c0-1.29,0.86-1.17,0.86-1.17h8.26l1.7-5.2
		h-13.53c-3.16,0-3.54,1.75-3.51,3.19v5.58c0,0-0.16,3.11,2.93,3.24h0.07l-0.01,0.02h6.27c0.13,0,1.01-0.13,1.01,0.9
		c0,1.28-0.86,1.17-0.86,1.17h-8.26l-1.7,5.2h13.53c3.16,0,3.54-1.75,3.51-3.19v-5.58C233.8,322.04,233.95,318.93,230.87,318.81z"/>
	<rect x="106.58" y="305.03" class="st4" width="7.08" height="25.79"/>
	<polygon class="st4" points="122.05,318.88 114.46,318.88 121.04,305.03 128.62,305.03 	"/>
	<polygon class="st4" points="122.05,316.96 114.46,316.96 121.04,330.82 128.62,330.82 	"/>
	<rect x="112.84" y="315.04" class="st4" width="5.66" height="6.07"/>
	<path class="st4" d="M189.42,303.99"/>
	<path class="st4" d="M180.21,334.47v-17.62v-5.14h-7.25h-8.01c-3.61,0-3.68,3.62-3.68,3.62v11.78c0,0-0.13,3.64,3.61,3.64h8.08v2.2
		h-9.8l-1.72,4.83h15.93C177.38,337.77,180.2,338.17,180.21,334.47z M168.52,325.33v-8.49h4.44v8.49H168.52z"/>
	<path class="st4" d="M281.97,95.95c-0.06,0.26-0.1,0.92-0.18,1.91c-1.94,24.92-9.64,43.74-22.9,55.93
		c-9.2,8.46-20.11,12.75-32.44,12.75c-7.07,0-12.81-1.45-15.97-2.46c4.59,12.14,3.34,23.63,3.29,24.15l-0.17,0.49
		c-2.42,4.04-6.93,11.55-5.15,21.62c1.53,8.64,9.13,14.46,10.81,15.65c8.31-0.71,16.19-1.07,23.42-1.07c31.7,0,41.9,6.79,42.32,7.08
		l2.56,1.77l-3.08,0.43c-23.34,3.25-58.33,33.98-58.68,34.29l-0.49,0.43l-6.65-1.79c12.8,9.39,16.69,19.56,16.87,20.05l0.91,2.44
		l-2.45-0.88c-26.42-9.46-55.39-14.26-86.08-14.26c-52,0-91.4,13.97-91.79,14.11l-4.34,1.56l3.01-3.5
		c29.88-34.73,55.39-38.93,56.46-39.09h0.31l-22.83-23.44l4.21-42.53l6.51,0.1c0.79-14.36,6.73-23.2,8.81-25.88l-10.06-11.01
		c-24.94-19.77-4.55-48.96-4.34-49.25l0.17-0.19c10.53-13.46,21.56-14.86,33.1-14.86c12.81,0,25.73,5.87,40.69,12.66
		c2.02,0.92,4.09,1.86,6.2,2.8c4.97,2.22,10.03,3.35,15.05,3.35c21.59,0,36.5-20.73,36.65-20.94l2.05-2.9l0.16,3.54
		c0.99,22.55-9.05,34.69-13.37,38.83c4.42,0.91,8.86,1.37,13.23,1.37c0,0,0,0,0,0c31.76,0,51.88-24.19,52.08-24.43
		c0,0,1.78-2.09,2.38-3.1L281.97,95.95z M147.92,272.06c29.9,0,58.19,4.52,84.12,13.43c-2.36-4.31-8.46-13.29-21.13-20.49l-8.3-4.71
		l22.09,5.96c4.29-3.74,33.34-28.45,55.77-33.75c-4.99-1.96-16.38-5.15-37.78-5.15c-7.28,0-15.24,0.37-23.64,1.1l-0.41,0.04
		l-0.35-0.22c-0.42-0.27-10.33-6.78-12.22-17.49c-1.9-10.76,2.71-18.69,5.32-23.05c0.16-1.87,0.95-13.74-4.17-25.21l-1.28-2.86
		l2.87,1.25c0.07,0.03,7.52,3.23,17.65,3.23c11.7,0,22.06-4.08,30.79-12.11c12.55-11.55,19.95-29.36,22.01-52.97
		c-6.47,6.53-25.1,22.62-51.46,22.62c0,0,0,0,0,0c-5.32,0-10.75-0.66-16.12-1.96l-2.53-0.61l2.09-1.54
		c0.15-0.11,14.15-10.76,14.34-35.05c-4.99,5.9-18.31,19.25-36.49,19.25c-5.37,0-10.76-1.2-16.05-3.56
		c-2.12-0.95-4.19-1.89-6.21-2.81c-14.7-6.68-27.4-12.44-39.69-12.44c-10.86,0-20.45,0.94-31.36,14.14
		c-1.47,2.11-18.71,27.89,4.08,45.98l11.65,12.73l-0.74,0.82c-0.08,0.09-8.36,9.48-8.94,26.38l-0.04,1.19l-6.65-0.1l-3.88,39.18
		l21.93,22.51l15.77-5.33l2.89,4.72l0.3,4.82h-20.71c-0.07,0.03-23.89,4.01-51.87,34.94C71.19,281.34,105.4,272.06,147.92,272.06z"
		/>
	<path class="st6" d="M203.61,168.02l-1.14-1.42c-0.11-0.14-0.33-0.47-0.68-1.01c-12.85-19.73-28.65-31.34-44.47-32.7
		c-2.72-0.23-5.39-0.35-7.96-0.35c-16.81,0-25.86,5.07-28.78,7.07c6.02-1.19,10.26-1.45,12.81-1.45c2.25,0,3.33,0.2,3.38,0.2
		l1.2,0.22l-1.17,0.37c-15.88,4.96-21.43,12.45-21.48,12.53l-0.26,0.36l-6.5-9.96l0.19-0.17c11.09-10.33,26.55-13.17,26.7-13.2
		c3.52-0.46,6.99-0.69,10.32-0.69c22.41,0,36.77,10.47,44.88,19.25c8.78,9.51,12.31,19.16,12.34,19.26L203.61,168.02z"/>
	<path class="st6" d="M168.08,199.62c-3.01,0-5.45-2.45-5.45-5.45c0-3.01,2.45-5.45,5.45-5.45c3.01,0,5.45,2.45,5.45,5.45
		C173.53,197.18,171.08,199.62,168.08,199.62z"/>
	<path class="st4" d="M168.08,190.25c-2.16,0-3.92,1.76-3.92,3.92c0,2.16,1.76,3.92,3.92,3.92c2.16,0,3.92-1.76,3.92-3.92
		C172,192.01,170.24,190.25,168.08,190.25z"/>
	<path class="st6" d="M114.11,241.04l-19.75-18.06l0.51-0.15l72.59-21.45l0.33,0.04c0.19,0.02,0.39,0.05,0.59,0.05
		c4.52,0,8.2-3.68,8.2-8.2c0-4.52-3.68-8.2-8.2-8.2c-4.38,0-7.97,3.44-8.16,7.83c0,0.07-0.01,0.13-0.02,0.2
		c-0.01,0.06-0.02,0.11-0.02,0.17c0,2.32,0.97,4.48,2.72,6.06l0.4,0.36l-4.26,1.26l-39.98,11.77l0.37-7.81l-3.61-2.03l-0.52,10.95
		l-4.43,1.3l0.94-14.5l-3.6-2.03l-1.11,17.64l-4.53,1.34l1.15-21.5l-3.61-2.03l-1.31,24.63l-5.52,1.63l3.73-30.68h59.64
		c1.59-5.13,6.38-8.69,11.73-8.69c6.8,0,12.33,5.53,12.33,12.33c0,6.07-4.37,11.17-10.38,12.13l-34.48,11.3l32.87-7.14l0.17,0.58
		l-32.59,11.86l30.19-7.18l0.19,0.57l-32.86,14.24l28.41-7.33l0.18,0.58L114.11,241.04z"/>
	<path class="st6" d="M210.69,276.58l-0.82-0.19c-0.36-0.08-35.96-8.27-73.64-8.27c-14.97,0-28.4,1.29-39.89,3.83l-1.24,0.27
		l0.97-0.82c0.09-0.08,9.75-8.09,32.49-15.98c20.96-7.27,57.68-15.94,113.56-15.94c2.46,0,4.93,0.02,7.46,0.05l1,0.01l-7.9,5.31
		l-0.11-0.01c-0.07-0.01-7.4-0.66-18.63-0.66c-20.1,0-49.05,1.98-75.05,11.16c9.27-1.69,34.23-5.82,57.04-5.82
		c10.81,0,19.86,0.92,26.9,2.74l0.72,0.19l-3.02,1.81l-0.12-0.03c-0.08-0.02-8.07-1.74-23.11-1.74c-15.03,0-31.5,1.64-49.05,4.89
		c5.74-0.49,14.58-1.08,23.74-1.08c13.8,0,24.08,1.3,30.56,3.85l2.57,1.01l-2.73-0.41c-0.1-0.02-10.25-1.53-20.24-1.53
		c-3.09,0-5.87,0.14-8.28,0.43c4.59,1.47,19.42,6.8,26.35,16.23L210.69,276.58z"/>
	<g>
		<path class="st6" d="M175.41,240.87l-0.63-0.01c0.05-2.84,0.53-9.81,3.81-13.08l0.57-0.57l-0.04,0.8c0,0.06-0.22,5.82,2.83,9.92
			c-0.05-2.45,0.05-9.2,2.26-14.23l0.7-1.59l-0.1,1.73c0,0.07-0.34,7.25,5.01,12.64c-0.78-3.93-3.19-18.39,1.32-26.99l0.62-1.19
			l-0.04,1.35c0,0.16-0.31,15.92,10.08,27.88l-0.47,0.41c-8.76-10.09-10.03-22.84-10.21-26.96c-4.17,9.8-0.53,26.18-0.5,26.35
			l0.22,0.95l-0.73-0.65c-4.66-4.15-5.68-9.63-5.9-12.27c-2.04,5.93-1.62,13.38-1.62,13.46l0.05,0.9l-0.6-0.67
			c-3.07-3.44-3.52-8.29-3.57-10.23C175.87,232.13,175.46,238.27,175.41,240.87z"/>
		<path class="st6" d="M156.37,244.82l-0.12-0.12l-9.47-8.77l20.95-8.94c9.1-23.6,32.13-26.89,32.36-26.92l0.38-0.05l-0.02,0.38
			c-1.64,29.43,13.76,36.04,13.91,36.1l1.27,0.52l-1.37,0.09c-4.23,0.26-8.37,0.57-12.64,0.94l-0.16,0.01l-0.1-0.12
			c-8.76-10.09-10.03-22.84-10.21-26.96c-4.17,9.8-0.53,26.18-0.5,26.35l0.22,0.95l-0.73-0.65c-4.66-4.15-5.68-9.63-5.9-12.27
			c-2.04,5.93-1.62,13.38-1.62,13.46l0.05,0.9l-0.6-0.67c-3.07-3.44-3.52-8.29-3.57-10.23c-2.63,3.32-3.04,9.45-3.09,12.05l0,0.26
			l-0.26,0.04c-9,1.39-15.09,2.73-18.61,3.6L156.37,244.82z"/>
	</g>
	<g>
		<path class="st6" d="M182.9,194.14l0.05-0.7c0.03-0.4,0.06-0.8,0.06-1.21c0-8.63-6.34-15.65-14.13-15.65
			c-6.22,0-11.65,4.42-13.5,10.99l-0.06,0.23h-16.29l0.23-4.73l0.12-0.09c3.35-2.39,13.07-8.74,16.97-11.28l-23.05,6.13l-0.12-0.11
			c-3.21-2.74-3.39-8.9-3.31-11.62c-2.06,4.1-1.71,10.17-1.45,12.75l0.03,0.27l-3.3,0.88l-0.06-0.34
			c-1.56-8.77,0.33-17.07,1.17-20.1c-6.24,6.7-7.57,17.52-7.85,22l-0.01,0.23l-3.65,0.97l-0.01-0.39
			c-0.46-15.12,6.45-25.69,9.71-29.8c-14.48,10.78-16.59,27-16.88,31.89l-0.01,0.23l-4.08,1.09l-0.01-0.4
			c-0.01-0.37-0.5-36.57,34.42-45.11c5.11-1.25,10.15-1.88,15-1.88c13.25,0,25.46,4.77,35.31,13.81c8.5,7.79,14.97,18.5,18.23,30.16
			l0.08,0.27l-0.26,0.1c0,0-0.91,0.35-2.34,0.93l-0.31,0.12l-0.1-0.32c-4.27-13.01-9.29-20.02-12.52-23.48
			c5.92,8.18,9.73,21.44,10.52,24.37l0.07,0.26l-0.25,0.11c-0.77,0.32-1.58,0.66-2.45,1.03l-0.33,0.14l-0.09-0.34
			c-3-10.71-7.13-15.57-9.33-17.51c5.53,8.23,6.53,16.4,6.71,18.82l0.02,0.22l-0.2,0.09c-0.9,0.4-1.8,0.82-2.71,1.25l-0.44,0.21
			l-0.01-0.48c-0.14-7.81-3.37-11.49-5.05-12.88c2.44,5.23,2.7,11.68,2.69,14.33v0.19l-0.17,0.09c-2.92,1.48-5.1,2.77-6.46,3.83
			L182.9,194.14z"/>
	</g>
	<path class="st4" d="M142.26,259.24c-5.08,0.53-16.31,2.73-16.31,2.73l3.03-2.73l-19.77,6.93c28.42-3.34,73.98,1.25,87.97,3.7
		c-7.56-4.51-13.52-6.78-13.64-6.81l-9.2-3.16c-11.05,0.45-22.72,1.75-22.83,1.77l-12.16,0.35L142.26,259.24z"/>
	<path class="st4" d="M185.34,220.41l-1.06-3.49c-2.35,2.58-2.65,7.57-2.91,8.42l-1.79-5.31c0,0-4.32,3.36-6.69,17.31
		c-0.03,0.2-0.03,0.38-0.05,0.58c-0.03,0.29,0.46,1.25,0.44,1.53c-7.07,1.14-12.74,1.55-16.12,2.36l-5.42-5.01l18.43-8.12l0.07-0.57
		c4.78-12.51,12.03-17.13,18.89-20.37l-0.83,1.75c-0.74,1.41-0.71,2.25-1.14,3.87l-0.68-1.14
		C185.26,214.11,185.34,220.41,185.34,220.41z M197.59,203.4c-0.31,17.45,6.5,26.6,11.11,31.27c-1.65,0.13-4.45,0.4-6.03,0.54
		c-0.17-0.21-0.34-0.42-0.5-0.63c-0.28-0.36-0.55-0.71-0.8-1.07c-0.26-0.37-0.5-0.73-0.75-1.1c-0.24-0.36-0.47-0.73-0.69-1.09
		c-0.23-0.37-0.44-0.74-0.65-1.12c-0.21-0.37-0.41-0.73-0.6-1.1c-0.19-0.38-0.37-0.75-0.55-1.12c-0.17-0.37-0.35-0.73-0.51-1.1
		C197.62,226.87,190.28,214.98,197.59,203.4z"/>
	<g>
		<path class="st4" d="M173.63,147.25c-7.58-4.14-13.98-5.88-20.77-5.88c-4.6,0-9.48,0.35-14.29,1.8c-4.18,1.25-6.2,2.67-8.93,4.39
			l5.56-0.2c-0.03,0.03-8.19,6.62-9.7,8.78l6.87-3.93l-2.93,7.13c0.5-1.55,0.59-1.93-0.81,2.88l4.85-6.37l-0.91,5.87
			c-0.21,2.22-0.15,10.38,1.32,12.84l34.28-7.99l-9.81,6.07c-0.13,0.08-11.83,6.47-16.2,12.05l-0.01,0.14h9.24
			c2.68-6.79,10.76-10.47,17.69-10.47c7.18,0.3,14.27,6.55,15.78,15.16c0.44-0.25,1.73-1.27,2.22-1.53
			c-0.12-3.15,0.49-8.83-1.71-12.83l-3.03-6.78l5.41,3.52c0.03,0.02,0.15,0.08,0.33,0.18c-0.38-1.79-0.89-3-1.8-4.72l-3.54-7.99
			l6.15,4.87c0.24,0.12,1.07,0.57,2.23,1.6c-1.54-2.8-3.28-5.33-5.18-7.13C180.51,150.59,173.63,147.25,173.63,147.25z"/>
	</g>
	<path class="st6" d="M215.81,150.11c-6.27,0-10.54-0.73-10.58-0.74l-0.14-0.02l-3.22-5.28l0.59,0.03c3.1,0.17,6.09,0.26,8.9,0.26
		c27.29,0,33.02-8.09,34.06-10.22c-6.75,1.52-14.83,2.3-24.04,2.3c-20.88,0-40.84-4.01-41.04-4.05
		c-32.81-7.17-44.11-16.84-47.81-23.69c-1.82-3.36-1.84-6.06-1.64-7.51c-4.06,4.52-5.86,9.02-5.34,13.39
		c0.83,7.02,7.42,11.33,7.49,11.37l0.83,0.53l-0.99,0.04c-12.1,0.52-19.47-1.9-21.86-7.2c-3.78-8.36,5.89-21.11,8.86-24.72
		c-12.02,4.92-18.74,11.15-19.98,18.53c-1.91,11.36,10.04,21.68,10.16,21.78l0.28,0.23l-3.19,2.83l-0.2-0.15
		c-9.77-6.96-14.76-14.6-14.83-22.72c-0.11-13.24,13.17-23.2,13.31-23.29c8.23-5.81,15.23-6.46,21.74-6.46
		c10.33,0,19.29,4.93,32.86,12.4l3.23,1.77c7.77,4.26,16.06,6.41,24.65,6.41c11.7,0,19.88-4.1,19.96-4.14l0.64-0.33l-0.2,0.7
		c-2.64,9.11-14.3,13.27-17.48,14.24c15.56,7.39,30.82,11.14,45.37,11.14c19.38,0,30.68-6.81,30.8-6.88l0.88-0.54l-0.43,0.94
		C255.83,146.34,230.11,150.11,215.81,150.11z"/>
	<path class="st4" d="M236.22,131.15c-15.33,0-48.53,0.52-73.86-16.78c0,0,13.1,3.74,23.16,3.46l-5.1-2.46l8.75-2.21
		c0.08-0.02,5.64-1.48,10.2-4.83c-3.23,0.69-7.11,1.21-11.45,1.21c-9.2,0-18.07-2.31-26.37-6.86l-3.24-1.78
		c-7.27-4-13.16-7.23-18.57-9.32c0.04-0.02,0.06-0.03,0.1-0.04c-2.5-0.91-4.93-1.59-7.96-1.97c-0.61,0.4-3.26,2.43-11.32,9.84
		c-10.11,9.29-4.25,18.3-4.25,18.3c1.43,3.17,3.98,4.61,8.68,5.07c-2.66-1.43-4.2-3.98-4.56-7.04c-0.67-5.7,5.34-15.78,15.39-22.2
		c-0.28,3.89,0.01,7.95,0.01,7.95c0.3,1.47,3.19,20.17,45.3,27.39c0.15,0.03,19.78,3.96,40.28,3.96c8.55,0,16.07-0.68,22.39-2.02
		C241.41,131.03,238.89,131.15,236.22,131.15z"/>
	<path class="st4" d="M98.56,223.95l16.02,14.65l16-6.02l-9.41,0.57l8.25-3.94l17.41-7.55l-16.64,3.67l-7.74,0.22l8.18-3.78
		l12.22-4.45l-12.76,2.77l-11.58,0.07l10.09-3.31l40.5-13.31c-0.49,0.03-0.99,0.03-1.47-0.03L98.56,223.95z M100.36,191.74
		l5.55,3.12l-1.06,19.82l0.23-0.07l1.23-19.53l7.55,4.25v0l7.75,4.36l-0.29,6.14l38.24-11.26c-4.12-0.16-7.36-0.56-14.64-1.47
		l10.42-2.83c0.01-0.13-8.33-1.05-7.69-1.11c2.33-0.21,10.51-1.21,10.54-1.42H100.36z"/>
</g>
</svg>
