<?xml version="1.0" encoding="UTF-8" standalone="no"?>
<svg
   version="1.1"
   style="font-size:18px;font-family:Lato, 'Helvetica Neue', Helvetica, Arial, 'Liberation Sans', sans-serif;text-rendering:geometricPrecision;-webkit-font-smoothing:antialiased"
   width="818.79999"
   height="584.5"
   viewBox="0 0 818.79999 584.49999"
   id="svg52"
   sodipodi:docname="supercomputer-power-flops.svg"
   inkscape:version="1.3.2 (091e20e, 2023-11-25, custom)"
   xmlns:inkscape="http://www.inkscape.org/namespaces/inkscape"
   xmlns:sodipodi="http://sodipodi.sourceforge.net/DTD/sodipodi-0.dtd"
   xmlns="http://www.w3.org/2000/svg"
   xmlns:svg="http://www.w3.org/2000/svg">
  <sodipodi:namedview
     id="namedview52"
     pagecolor="#ffffff"
     bordercolor="#000000"
     borderopacity="0.25"
     inkscape:showpageshadow="2"
     inkscape:pageopacity="0.0"
     inkscape:pagecheckerboard="0"
     inkscape:deskcolor="#d1d1d1"
     inkscape:zoom="1.2286534"
     inkscape:cx="408.57738"
     inkscape:cy="314.57202"
     inkscape:window-width="1920"
     inkscape:window-height="1009"
     inkscape:window-x="-8"
     inkscape:window-y="-8"
     inkscape:window-maximized="1"
     inkscape:current-layer="svg52" />
  <defs
     id="defs1">
    <style
       id="style1">@import url(https://ourworldindata.org/fonts.css)</style>
  </defs>
  <defs
     id="defs2">
    <pattern
       id="noDataPattern"
       patternUnits="userSpaceOnUse"
       width="4"
       height="4"
       patternTransform="rotate(-45 2 2)">
      <path
         d="M -1,2 l 6,0"
         stroke="#ccc"
         stroke-width="0.7"
         id="path1" />
    </pattern>
  </defs>
  <g
     id="header"
     class="HeaderView"
     transform="translate(-16,-16)">
    <g
       id="logo"
       transform="translate(769,16)">
      <svg
         className="owidLogo"
         width="65"
         height="36"
         viewBox="0 0 65 36"
         fill="none"
         version="1.1"
         id="svg4">
        <path
           fill="#002147"
           d="M 0,0 H 64.8 V 36 H 0 Z"
           id="path2" />
        <path
           fill="#ce261e"
           d="M 0,33.3 H 64.8 V 36 H 0 Z"
           id="path3" />
        <path
           fill="#ffffff"
           d="m 13.796,10.575 c 0,0.636 -0.106,1.226 -0.318,1.77 a 4.193,4.193 0 0 1 -0.894,1.404 4.084,4.084 0 0 1 -1.386,0.93 c -0.54,0.22 -1.138,0.33 -1.794,0.33 -0.656,0 -1.256,-0.11 -1.8,-0.33 A 4.149,4.149 0 0 1 6.212,13.749 4.193,4.193 0 0 1 5.318,12.345 4.833,4.833 0 0 1 5,10.575 C 5,9.939 5.106,9.351 5.318,8.811 a 4.18,4.18 0 0 1 0.894,-1.41 4.076,4.076 0 0 1 1.392,-0.924 4.684,4.684 0 0 1 1.8,-0.336 c 0.656,0 1.254,0.112 1.794,0.336 0.54,0.224 1.002,0.534 1.386,0.93 0.384,0.392 0.682,0.86 0.894,1.404 0.212,0.54 0.318,1.128 0.318,1.764 z m -1.656,0 c 0,-0.476 -0.064,-0.902 -0.192,-1.278 A 2.671,2.671 0 0 0 11.408,8.331 2.332,2.332 0 0 0 10.544,7.725 2.94,2.94 0 0 0 9.404,7.515 c -0.424,0 -0.806,0.07 -1.146,0.21 -0.34,0.14 -0.63,0.342 -0.87,0.606 A 2.742,2.742 0 0 0 6.842,9.297 3.955,3.955 0 0 0 6.65,10.575 c 0,0.476 0.064,0.904 0.192,1.284 0.128,0.376 0.31,0.696 0.546,0.96 0.24,0.26 0.53,0.46 0.87,0.6 0.34,0.14 0.722,0.21 1.146,0.21 0.424,0 0.804,-0.07 1.14,-0.21 0.34,-0.14 0.628,-0.34 0.864,-0.6 0.236,-0.264 0.416,-0.584 0.54,-0.96 a 4.01,4.01 0 0 0 0.192,-1.284 z m 3.964,-1.818 v 3.912 c 0,0.376 0.086,0.668 0.258,0.876 0.176,0.204 0.438,0.306 0.786,0.306 0.256,0 0.496,-0.056 0.72,-0.168 a 2.58,2.58 0 0 0 0.636,-0.474 V 8.757 h 1.482 v 6.156 H 19.08 c -0.192,0 -0.318,-0.09 -0.378,-0.27 L 18.6,14.151 a 4.65,4.65 0 0 1 -0.396,0.354 2.577,2.577 0 0 1 -0.438,0.27 2.35,2.35 0 0 1 -0.498,0.168 2.345,2.345 0 0 1 -0.57,0.066 c -0.336,0 -0.634,-0.056 -0.894,-0.168 A 1.821,1.821 0 0 1 15.156,14.355 2.157,2.157 0 0 1 14.754,13.617 3.233,3.233 0 0 1 14.622,12.669 V 8.757 Z m 5.224,6.156 V 8.757 h 0.87 c 0.152,0 0.258,0.028 0.318,0.084 0.06,0.056 0.1,0.152 0.12,0.288 l 0.09,0.744 c 0.22,-0.38 0.478,-0.68 0.774,-0.9 0.296,-0.22 0.628,-0.33 0.996,-0.33 0.304,0 0.556,0.07 0.756,0.21 l -0.192,1.11 c -0.012,0.072 -0.038,0.124 -0.078,0.156 A 0.278,0.278 0 0 1 24.82,10.161 1.01,1.01 0 0 1 24.574,10.119 1.646,1.646 0 0 0 24.16,10.077 c -0.308,0 -0.572,0.086 -0.792,0.258 -0.22,0.168 -0.406,0.416 -0.558,0.744 v 3.834 z m 6.019,-8.676 h 1.356 a 0.57,0.57 0 0 1 0.348,0.102 c 0.096,0.064 0.16,0.152 0.192,0.264 l 1.476,5.19 c 0.036,0.128 0.068,0.268 0.096,0.42 0.032,0.148 0.062,0.306 0.09,0.474 a 5.968,5.968 0 0 1 0.228,-0.894 l 1.704,-5.19 a 0.575,0.575 0 0 1 0.186,-0.252 0.543,0.543 0 0 1 0.348,-0.114 h 0.474 a 0.57,0.57 0 0 1 0.348,0.102 0.497,0.497 0 0 1 0.192,0.264 l 1.692,5.19 c 0.088,0.256 0.164,0.54 0.228,0.852 0.028,-0.156 0.056,-0.306 0.084,-0.45 0.032,-0.144 0.064,-0.278 0.096,-0.402 l 1.476,-5.19 c 0.028,-0.1 0.09,-0.186 0.186,-0.258 a 0.563,0.563 0 0 1 0.348,-0.108 h 1.266 l -2.694,8.676 H 35.609 L 33.713,8.985 33.635,8.739 A 9.504,9.504 0 0 1 33.563,8.457 c -0.024,0.1 -0.05,0.194 -0.078,0.282 -0.024,0.088 -0.048,0.17 -0.072,0.246 l -1.914,5.928 H 30.04 L 27.346,6.237 Z m 15.424,2.424 c 0.46,0 0.876,0.074 1.248,0.222 0.376,0.148 0.696,0.358 0.96,0.63 0.264,0.272 0.468,0.604 0.612,0.996 0.144,0.392 0.216,0.83 0.216,1.314 0,0.488 -0.072,0.928 -0.216,1.32 a 2.85,2.85 0 0 1 -0.612,1.002 2.653,2.653 0 0 1 -0.96,0.636 3.35,3.35 0 0 1 -1.248,0.222 c -0.46,0 -0.878,-0.074 -1.254,-0.222 a 2.712,2.712 0 0 1 -0.966,-0.636 2.922,2.922 0 0 1 -0.618,-1.002 3.807,3.807 0 0 1 -0.216,-1.32 c 0,-0.484 0.072,-0.922 0.216,-1.314 0.148,-0.392 0.354,-0.724 0.618,-0.996 0.268,-0.272 0.59,-0.482 0.966,-0.63 a 3.397,3.397 0 0 1 1.254,-0.222 z m 0,5.202 c 0.512,0 0.89,-0.172 1.134,-0.516 0.248,-0.344 0.372,-0.848 0.372,-1.512 0,-0.664 -0.124,-1.17 -0.372,-1.518 -0.244,-0.348 -0.622,-0.522 -1.134,-0.522 -0.52,0 -0.904,0.176 -1.152,0.528 -0.248,0.348 -0.372,0.852 -0.372,1.512 0,0.66 0.124,1.164 0.372,1.512 0.248,0.344 0.632,0.516 1.152,0.516 z m 3.952,1.05 V 8.757 h 0.87 c 0.152,0 0.258,0.028 0.318,0.084 0.06,0.056 0.1,0.152 0.12,0.288 l 0.09,0.744 c 0.22,-0.38 0.478,-0.68 0.774,-0.9 0.296,-0.22 0.628,-0.33 0.996,-0.33 0.304,0 0.556,0.07 0.756,0.21 l -0.192,1.11 c -0.012,0.072 -0.038,0.124 -0.078,0.156 a 0.278,0.278 0 0 1 -0.162,0.042 1.01,1.01 0 0 1 -0.246,-0.042 1.646,1.646 0 0 0 -0.414,-0.042 c -0.308,0 -0.572,0.086 -0.792,0.258 -0.22,0.168 -0.406,0.416 -0.558,0.744 v 3.834 z M 52.96,5.997 v 8.916 H 51.478 V 5.997 Z m 5.772,8.916 c -0.192,0 -0.318,-0.09 -0.378,-0.27 l -0.12,-0.594 a 3.68,3.68 0 0 1 -0.402,0.39 c -0.14,0.116 -0.292,0.216 -0.456,0.3 -0.16,0.084 -0.334,0.148 -0.522,0.192 a 2.372,2.372 0 0 1 -0.6,0.072 c -0.336,0 -0.644,-0.07 -0.924,-0.21 a 2.098,2.098 0 0 1 -0.726,-0.606 3.033,3.033 0 0 1 -0.468,-0.99 5.072,5.072 0 0 1 -0.162,-1.344 c 0,-0.456 0.062,-0.88 0.186,-1.272 0.124,-0.392 0.302,-0.732 0.534,-1.02 0.232,-0.288 0.51,-0.512 0.834,-0.672 A 2.384,2.384 0 0 1 56.62,8.643 2.103,2.103 0 0 1 58.156,9.249 V 5.997 h 1.482 v 8.916 z m -1.974,-1.086 c 0.308,0 0.57,-0.064 0.786,-0.192 0.216,-0.128 0.42,-0.31 0.612,-0.546 v -2.76 A 1.452,1.452 0 0 0 57.604,9.897 1.597,1.597 0 0 0 56.968,9.771 c -0.224,0 -0.428,0.042 -0.612,0.126 a 1.21,1.21 0 0 0 -0.462,0.384 c -0.124,0.168 -0.22,0.384 -0.288,0.648 -0.068,0.26 -0.102,0.568 -0.102,0.924 0,0.36 0.028,0.666 0.084,0.918 0.06,0.248 0.144,0.452 0.252,0.612 0.108,0.156 0.24,0.27 0.396,0.342 0.156,0.068 0.33,0.102 0.522,0.102 z m -40.427,6.93 v 6.156 H 14.85 v -6.156 z m 0.223,-1.794 a 0.844,0.844 0 0 1 -0.078,0.36 0.963,0.963 0 0 1 -0.21,0.294 0.995,0.995 0 0 1 -0.3,0.204 0.963,0.963 0 0 1 -0.372,0.072 0.948,0.948 0 0 1 -0.367,-0.072 1.018,1.018 0 0 1 -0.498,-0.498 0.963,0.963 0 0 1 0,-0.732 0.995,0.995 0 0 1 0.205,-0.3 0.929,0.929 0 0 1 0.293,-0.198 0.899,0.899 0 0 1 0.738,0 0.912,0.912 0 0 1 0.3,0.198 0.943,0.943 0 0 1 0.288,0.672 z m 1.217,7.95 v -6.156 h 0.906 c 0.192,0 0.318,0.09 0.378,0.27 l 0.102,0.486 a 2.934,2.934 0 0 1 0.828,-0.618 c 0.156,-0.076 0.322,-0.134 0.498,-0.174 0.176,-0.04 0.368,-0.06 0.576,-0.06 0.336,0 0.634,0.058 0.894,0.174 0.26,0.112 0.476,0.272 0.648,0.48 0.176,0.204 0.308,0.45 0.396,0.738 0.092,0.284 0.138,0.598 0.138,0.942 v 3.918 h -1.482 v -3.918 c 0,-0.376 -0.088,-0.666 -0.264,-0.87 -0.172,-0.208 -0.432,-0.312 -0.78,-0.312 -0.256,0 -0.496,0.058 -0.72,0.174 a 2.58,2.58 0 0 0 -0.636,0.474 v 4.452 z M 34.22,22.575 c 0,0.636 -0.106,1.22 -0.318,1.752 -0.212,0.532 -0.51,0.99 -0.894,1.374 a 4,4 0 0 1 -1.386,0.894 4.87,4.87 0 0 1 -1.794,0.318 h -3.312 v -8.676 h 3.312 a 4.79,4.79 0 0 1 1.794,0.324 4,4 0 0 1 1.386,0.894 c 0.384,0.38 0.682,0.836 0.894,1.368 0.212,0.532 0.318,1.116 0.318,1.752 z m -1.65,0 c 0,-0.476 -0.064,-0.902 -0.192,-1.278 a 2.68,2.68 0 0 0 -0.546,-0.96 2.332,2.332 0 0 0 -0.864,-0.606 2.94,2.94 0 0 0 -1.14,-0.21 h -1.686 v 6.108 h 1.686 c 0.424,0 0.804,-0.07 1.14,-0.21 0.34,-0.14 0.628,-0.34 0.864,-0.6 a 2.75,2.75 0 0 0 0.546,-0.96 4.01,4.01 0 0 0 0.192,-1.284 z m 7.41,4.338 h -0.665 c -0.14,0 -0.25,-0.02 -0.33,-0.06 -0.08,-0.044 -0.14,-0.13 -0.18,-0.258 l -0.132,-0.438 c -0.156,0.14 -0.31,0.264 -0.462,0.372 a 2.804,2.804 0 0 1 -0.462,0.264 c -0.16,0.072 -0.33,0.126 -0.51,0.162 -0.18,0.036 -0.38,0.054 -0.6,0.054 -0.26,0 -0.5,-0.034 -0.72,-0.102 a 1.618,1.618 0 0 1 -0.57,-0.318 1.448,1.448 0 0 1 -0.366,-0.522 1.852,1.852 0 0 1 -0.132,-0.726 c 0,-0.232 0.06,-0.46 0.18,-0.684 0.124,-0.228 0.328,-0.432 0.612,-0.612 0.284,-0.184 0.662,-0.336 1.134,-0.456 0.472,-0.12 1.058,-0.188 1.758,-0.204 v -0.36 c 0,-0.412 -0.088,-0.716 -0.264,-0.912 -0.172,-0.2 -0.424,-0.3 -0.756,-0.3 a 1.837,1.837 0 0 0 -1.02,0.276 c -0.116,0.068 -0.224,0.13 -0.324,0.186 a 0.664,0.664 0 0 1 -0.33,0.084 0.429,0.429 0 0 1 -0.258,-0.078 0.614,0.614 0 0 1 -0.174,-0.192 l -0.27,-0.474 c 0.708,-0.648 1.562,-0.972 2.562,-0.972 0.36,0 0.68,0.06 0.96,0.18 0.284,0.116 0.524,0.28 0.72,0.492 0.196,0.208 0.344,0.458 0.444,0.75 0.104,0.292 0.156,0.612 0.156,0.96 v 3.888 z M 37.1,25.989 c 0.153,0 0.293,-0.014 0.42,-0.042 0.129,-0.028 0.249,-0.07 0.36,-0.126 0.117,-0.056 0.227,-0.124 0.33,-0.204 0.109,-0.084 0.217,-0.182 0.325,-0.294 v -1.038 c -0.432,0.02 -0.794,0.058 -1.086,0.114 -0.288,0.052 -0.52,0.12 -0.696,0.204 a 0.923,0.923 0 0 0 -0.378,0.294 0.664,0.664 0 0 0 -0.108,0.366 c 0,0.26 0.076,0.446 0.228,0.558 0.156,0.112 0.358,0.168 0.606,0.168 z m 6.12,1.021 c -0.532,0 -0.942,-0.15 -1.23,-0.45 -0.288,-0.305 -0.432,-0.723 -0.432,-1.255 v -3.438 h -0.624 a 0.31,0.31 0 0 1 -0.21,-0.078 C 40.668,21.737 40.64,21.659 40.64,21.555 v -0.588 l 0.99,-0.162 0.312,-1.68 a 0.302,0.302 0 0 1 0.108,-0.186 0.365,0.365 0 0 1 0.222,-0.066 h 0.768 v 1.938 h 1.62 v 1.056 h -1.62 v 3.336 c 0,0.192 0.048,0.342 0.144,0.45 a 0.488,0.488 0 0 0 0.384,0.162 c 0.092,0 0.168,-0.01 0.228,-0.03 0.064,-0.024 0.118,-0.048 0.162,-0.072 0.048,-0.024 0.09,-0.046 0.126,-0.066 a 0.194,0.194 0 0 1 0.108,-0.036 0.16,0.16 0 0 1 0.108,0.036 c 0.028,0.02 0.058,0.052 0.09,0.096 l 0.444,0.72 c -0.216,0.18 -0.464,0.316 -0.744,0.408 a 2.77,2.77 0 0 1 -0.87,0.138 z m 7.203,-0.097 h -0.666 c -0.14,0 -0.25,-0.02 -0.33,-0.06 -0.08,-0.044 -0.14,-0.13 -0.18,-0.258 l -0.132,-0.438 c -0.156,0.14 -0.31,0.264 -0.462,0.372 a 2.804,2.804 0 0 1 -0.462,0.264 c -0.16,0.072 -0.33,0.126 -0.51,0.162 -0.18,0.036 -0.38,0.054 -0.6,0.054 -0.26,0 -0.5,-0.034 -0.72,-0.102 a 1.618,1.618 0 0 1 -0.57,-0.318 1.448,1.448 0 0 1 -0.366,-0.522 1.852,1.852 0 0 1 -0.132,-0.726 c 0,-0.232 0.06,-0.46 0.18,-0.684 0.124,-0.228 0.328,-0.432 0.612,-0.612 0.284,-0.184 0.662,-0.336 1.134,-0.456 0.472,-0.12 1.058,-0.188 1.758,-0.204 v -0.36 c 0,-0.412 -0.088,-0.716 -0.264,-0.912 -0.172,-0.2 -0.424,-0.3 -0.756,-0.3 a 1.837,1.837 0 0 0 -1.02,0.276 c -0.116,0.068 -0.224,0.13 -0.324,0.186 a 0.664,0.664 0 0 1 -0.33,0.084 0.429,0.429 0 0 1 -0.258,-0.078 0.614,0.614 0 0 1 -0.174,-0.192 l -0.27,-0.474 c 0.708,-0.648 1.562,-0.972 2.562,-0.972 0.36,0 0.68,0.06 0.96,0.18 0.284,0.116 0.524,0.28 0.72,0.492 0.196,0.208 0.344,0.458 0.444,0.75 0.104,0.292 0.156,0.612 0.156,0.96 z m -2.88,-0.924 c 0.152,0 0.292,-0.014 0.42,-0.042 0.128,-0.028 0.248,-0.07 0.36,-0.126 0.116,-0.056 0.226,-0.124 0.33,-0.204 0.108,-0.084 0.216,-0.182 0.324,-0.294 v -1.038 c -0.432,0.02 -0.794,0.058 -1.086,0.114 -0.288,0.052 -0.52,0.12 -0.696,0.204 a 0.923,0.923 0 0 0 -0.378,0.294 0.664,0.664 0 0 0 -0.108,0.366 c 0,0.26 0.076,0.446 0.228,0.558 0.156,0.112 0.358,0.168 0.606,0.168 z"
           id="path4" />
      </svg>
    </g>
    <a
       id="title"
       href="https://ourworldindata.org/grapher/supercomputer-power-flops"
       style="font-family:'Playfair Display', Georgia, 'Times New Roman', 'Liberation Serif', serif"
       target="_blank"
       rel="noopener">
      <text
         font-size="24.75px"
         font-weight="600"
         x="16"
         y="40"
         fill="#5b5b5b"
         id="text4"><tspan
           x="16"
           y="40.0075"
           id="tspan4">Computational capacity of the fastest supercomputers</tspan></text>
    </a>
    <g
       id="subtitle"
       class="markdown-text-wrap">
      <text
         x="16"
         y="63.900002"
         style="font-size:14.625px;line-height:1.2"
         fill="#5b5b5b"
         id="text8"><tspan
           x="16"
           y="63.900002"
           id="tspan7">The number of <tspan
   class="dod-span"
   data-id="flop"
   id="tspan6">floating-point operations<tspan
   style="font-feature-settings:'sups'"
   id="tspan5">ยน</tspan></tspan> carried out per second by the fastest supercomputer in any given year.</tspan><tspan
           x="16"
           y="81.400002"
           id="tspan8">This is expressed in gigaFLOPS, equivalent to 10โน floating-point operations per second.</tspan></text>
    </g>
  </g>
  <g
     id="chart-area"
     transform="translate(-16,-16)">
    <g
       id="line-chart"
       class="LineChart">
      <defs
         id="defs8">
        <clipPath
           id="boundsClip-6">
          <rect
             x="75.665001"
             y="90.800003"
             width="838"
             height="471"
             id="rect8" />
        </clipPath>
      </defs>
      <rect
         x="16"
         y="100.8"
         width="818"
         height="451"
         fill="none"
         id="rect9" />
      <g
         id="dual-axis"
         class="DualAxisView">
        <g
           id="horizontal-axis"
           class="HorizontalAxis">
          <g
             id="tick__1993">
            <line
               x1="85.699997"
               y1="530.79999"
               x2="85.699997"
               y2="536.29999"
               stroke="#999999"
               stroke-width="1"
               id="line9" />
            <text
               x="85.665001"
               y="549.79999"
               fill="#5b5b5b"
               text-anchor="start"
               font-size="13.5px"
               id="text9">1993</text>
          </g>
          <g
             id="tick__2023">
            <line
               x1="833"
               y1="530.79999"
               x2="833"
               y2="536.29999"
               stroke="#999999"
               stroke-width="1"
               id="line10" />
            <text
               x="833"
               y="549.79999"
               fill="#5b5b5b"
               text-anchor="end"
               font-size="13.5px"
               id="text10">2023</text>
          </g>
          <g
             id="tick__2000">
            <line
               x1="260"
               y1="530.79999"
               x2="260"
               y2="536.29999"
               stroke="#999999"
               stroke-width="1"
               id="line11" />
            <text
               x="260"
               y="549.79999"
               fill="#5b5b5b"
               text-anchor="middle"
               font-size="13.5px"
               id="text11">2000</text>
          </g>
          <g
             id="tick__2005">
            <line
               x1="384.60001"
               y1="530.79999"
               x2="384.60001"
               y2="536.29999"
               stroke="#999999"
               stroke-width="1"
               id="line12" />
            <text
               x="384.60001"
               y="549.79999"
               fill="#5b5b5b"
               text-anchor="middle"
               font-size="13.5px"
               id="text12">2005</text>
          </g>
          <g
             id="tick__2010">
            <line
               x1="509.20001"
               y1="530.79999"
               x2="509.20001"
               y2="536.29999"
               stroke="#999999"
               stroke-width="1"
               id="line13" />
            <text
               x="509.20001"
               y="549.79999"
               fill="#5b5b5b"
               text-anchor="middle"
               font-size="13.5px"
               id="text13">2010</text>
          </g>
          <g
             id="tick__2015">
            <line
               x1="633.70001"
               y1="530.79999"
               x2="633.70001"
               y2="536.29999"
               stroke="#999999"
               stroke-width="1"
               id="line14" />
            <text
               x="633.70001"
               y="549.79999"
               fill="#5b5b5b"
               text-anchor="middle"
               font-size="13.5px"
               id="text14">2015</text>
          </g>
          <g
             id="tick__2020">
            <line
               x1="758.29999"
               y1="530.79999"
               x2="758.29999"
               y2="536.29999"
               stroke="#999999"
               stroke-width="1"
               id="line15" />
            <text
               x="758.29999"
               y="549.79999"
               fill="#5b5b5b"
               text-anchor="middle"
               font-size="13.5px"
               id="text15">2020</text>
          </g>
        </g>
        <g
           id="vertical-axis"
           class="VerticalAxis">
          <g
             id="tick-labels">
            <text
               id="tick-label__1__002c000"
               x="80.669998"
               y="476.20001"
               dy="0.31999999em"
               text-anchor="end"
               fill="#5b5b5b"
               font-size="13.5px">1,000</text>
            <text
               id="tick-label__10__002c000"
               x="80.669998"
               y="415.39999"
               dy="0.31999999em"
               text-anchor="end"
               fill="#5b5b5b"
               font-size="13.5px">10,000</text>
            <text
               id="tick-label__100__002c000"
               x="80.669998"
               y="354.70001"
               dy="0.31999999em"
               text-anchor="end"
               fill="#5b5b5b"
               font-size="13.5px">100,000</text>
            <text
               id="tick-label__1-million"
               x="80.669998"
               y="293.89999"
               dy="0.31999999em"
               text-anchor="end"
               fill="#5b5b5b"
               font-size="13.5px">1 million</text>
            <text
               id="tick-label__10-million"
               x="80.669998"
               y="233.10001"
               dy="0.31999999em"
               text-anchor="end"
               fill="#5b5b5b"
               font-size="13.5px">10 million</text>
            <text
               id="tick-label__100-million"
               x="80.669998"
               y="172.39999"
               dy="0.31999999em"
               text-anchor="end"
               fill="#5b5b5b"
               font-size="13.5px">100 million</text>
            <text
               id="tick-label__1-billion"
               x="80.669998"
               y="111.6"
               dy="0.31999999em"
               text-anchor="end"
               fill="#5b5b5b"
               font-size="13.5px">1 billion</text>
          </g>
        </g>
        <g
           id="horizontal-grid-lines"
           class="AxisGridLines horizontalLines">
          <line
             id="grid-line__1000"
             x1="85.669998"
             y1="476.20001"
             x2="833"
             y2="476.20001"
             stroke="#dddddd"
             stroke-width="1"
             stroke-dasharray="3, 2" />
          <line
             id="grid-line__10000"
             x1="85.669998"
             y1="415.39999"
             x2="833"
             y2="415.39999"
             stroke="#dddddd"
             stroke-width="1"
             stroke-dasharray="3, 2" />
          <line
             id="grid-line__100000"
             x1="85.669998"
             y1="354.70001"
             x2="833"
             y2="354.70001"
             stroke="#dddddd"
             stroke-width="1"
             stroke-dasharray="3, 2" />
          <line
             id="grid-line__1000000"
             x1="85.669998"
             y1="293.89999"
             x2="833"
             y2="293.89999"
             stroke="#dddddd"
             stroke-width="1"
             stroke-dasharray="3, 2" />
          <line
             id="grid-line__10000000"
             x1="85.669998"
             y1="233.10001"
             x2="833"
             y2="233.10001"
             stroke="#dddddd"
             stroke-width="1"
             stroke-dasharray="3, 2" />
          <line
             id="grid-line__100000000"
             x1="85.669998"
             y1="172.39999"
             x2="833"
             y2="172.39999"
             stroke="#dddddd"
             stroke-width="1"
             stroke-dasharray="3, 2" />
          <line
             id="grid-line__1000000000"
             x1="85.669998"
             y1="111.6"
             x2="833"
             y2="111.6"
             stroke="#dddddd"
             stroke-width="1"
             stroke-dasharray="3, 2" />
        </g>
      </g>
      <g
         clip-path="url(#boundsClip-6)"
         id="g46">
        <g
           id="lines"
           class="Lines">
          <rect
             x="86"
             y="107"
             width="747"
             height="424"
             fill="rgba(255,255,255,0)"
             opacity="0"
             id="rect15" />
          <g
             id="line__World">
            <path
               stroke-linecap="round"
               stroke-linejoin="round"
               stroke="#dddddd"
               d="m 85.7,531.3 24.9,-8.3 h 24.9 l 24.9,-20.4 24.9,-33.3 h 24.9 l 24.9,-16.2 24.9,-18.8 25,-10.2 24.9,-42.4 h 24.9 l 24.9,-17.9 24.9,-36.4 h 24.9 l 24.9,-14 24.9,-22 24.9,-13 25,-9.7 24.9,-36.8 24.9,-13.7 24.9,-17.3 h 24.9 24.9 l 24.9,-26.6 h 24.9 l 24.9,-11.5 25,-0.9 24.9,-28.7 h 24.9 l 24.9,-24.1 24.9,-2.3"
               fill="none"
               stroke-width="1"
               id="path15" />
          </g>
          <g
             id="g45">
            <path
               id="outline"
               fill="none"
               stroke-linecap="butt"
               stroke-linejoin="round"
               stroke="#ffffff"
               stroke-width="2.5"
               d="m 85.7,531.3 24.9,-8.3 h 24.9 l 24.9,-20.4 24.9,-33.3 h 24.9 l 24.9,-16.2 24.9,-18.8 25,-10.2 24.9,-42.4 h 24.9 l 24.9,-17.9 24.9,-36.4 h 24.9 l 24.9,-14 24.9,-22 24.9,-13 25,-9.7 24.9,-36.8 24.9,-13.7 24.9,-17.3 h 24.9 24.9 l 24.9,-26.6 h 24.9 l 24.9,-11.5 25,-0.9 24.9,-28.7 h 24.9 l 24.9,-24.1 24.9,-2.3" />
            <g
               id="g15">
              <polyline
                 id="polyline"
                 points="85.70,531.30 110.60,523.00 135.50,523.00 160.40,502.60 185.30,469.30 210.20,469.30 235.10,453.10 260.00,434.30 285.00,424.10 309.90,381.70 334.80,381.70 359.70,363.80 384.60,327.40 409.50,327.40 434.40,313.40 459.30,291.40 484.20,278.40 509.20,268.70 534.10,231.90 559.00,218.20 583.90,200.90 608.80,200.90 633.70,200.90 658.60,174.30 683.50,174.30 708.40,162.80 733.40,161.90 758.30,133.20 783.20,133.20 808.10,109.10 833.00,106.80"
                 stroke-linejoin="round"
                 stroke-width="1.5"
                 stroke="#18470f"
                 fill="none"
                 stroke-linecap="butt" />
            </g>
            <g
               id="markers">
              <circle
                 cx="85.699997"
                 cy="531.29999"
                 r="1.8"
                 fill="#18470f"
                 id="circle15" />
              <circle
                 cx="110.6"
                 cy="523"
                 r="1.8"
                 fill="#18470f"
                 id="circle16" />
              <circle
                 cx="135.5"
                 cy="523"
                 r="1.8"
                 fill="#18470f"
                 id="circle17" />
              <circle
                 cx="160.39999"
                 cy="502.60001"
                 r="1.8"
                 fill="#18470f"
                 id="circle18" />
              <circle
                 cx="185.3"
                 cy="469.29999"
                 r="1.8"
                 fill="#18470f"
                 id="circle19" />
              <circle
                 cx="210.2"
                 cy="469.29999"
                 r="1.8"
                 fill="#18470f"
                 id="circle20" />
              <circle
                 cx="235.10001"
                 cy="453.10001"
                 r="1.8"
                 fill="#18470f"
                 id="circle21" />
              <circle
                 cx="260"
                 cy="434.29999"
                 r="1.8"
                 fill="#18470f"
                 id="circle22" />
              <circle
                 cx="285"
                 cy="424.10001"
                 r="1.8"
                 fill="#18470f"
                 id="circle23" />
              <circle
                 cx="309.89999"
                 cy="381.70001"
                 r="1.8"
                 fill="#18470f"
                 id="circle24" />
              <circle
                 cx="334.79999"
                 cy="381.70001"
                 r="1.8"
                 fill="#18470f"
                 id="circle25" />
              <circle
                 cx="359.70001"
                 cy="363.79999"
                 r="1.8"
                 fill="#18470f"
                 id="circle26" />
              <circle
                 cx="384.60001"
                 cy="327.39999"
                 r="1.8"
                 fill="#18470f"
                 id="circle27" />
              <circle
                 cx="409.5"
                 cy="327.39999"
                 r="1.8"
                 fill="#18470f"
                 id="circle28" />
              <circle
                 cx="434.39999"
                 cy="313.39999"
                 r="1.8"
                 fill="#18470f"
                 id="circle29" />
              <circle
                 cx="459.29999"
                 cy="291.39999"
                 r="1.8"
                 fill="#18470f"
                 id="circle30" />
              <circle
                 cx="484.20001"
                 cy="278.39999"
                 r="1.8"
                 fill="#18470f"
                 id="circle31" />
              <circle
                 cx="509.20001"
                 cy="268.70001"
                 r="1.8"
                 fill="#18470f"
                 id="circle32" />
              <circle
                 cx="534.09998"
                 cy="231.89999"
                 r="1.8"
                 fill="#18470f"
                 id="circle33" />
              <circle
                 cx="559"
                 cy="218.2"
                 r="1.8"
                 fill="#18470f"
                 id="circle34" />
              <circle
                 cx="583.90002"
                 cy="200.89999"
                 r="1.8"
                 fill="#18470f"
                 id="circle35" />
              <circle
                 cx="608.79999"
                 cy="200.89999"
                 r="1.8"
                 fill="#18470f"
                 id="circle36" />
              <circle
                 cx="633.70001"
                 cy="200.89999"
                 r="1.8"
                 fill="#18470f"
                 id="circle37" />
              <circle
                 cx="658.59998"
                 cy="174.3"
                 r="1.8"
                 fill="#18470f"
                 id="circle38" />
              <circle
                 cx="683.5"
                 cy="174.3"
                 r="1.8"
                 fill="#18470f"
                 id="circle39" />
              <circle
                 cx="708.40002"
                 cy="162.8"
                 r="1.8"
                 fill="#18470f"
                 id="circle40" />
              <circle
                 cx="733.40002"
                 cy="161.89999"
                 r="1.8"
                 fill="#18470f"
                 id="circle41" />
              <circle
                 cx="758.29999"
                 cy="133.2"
                 r="1.8"
                 fill="#18470f"
                 id="circle42" />
              <circle
                 cx="783.20001"
                 cy="133.2"
                 r="1.8"
                 fill="#18470f"
                 id="circle43" />
              <circle
                 cx="808.09998"
                 cy="109.1"
                 r="1.8"
                 fill="#18470f"
                 id="circle44" />
              <circle
                 cx="833"
                 cy="106.8"
                 r="1.8"
                 fill="#18470f"
                 id="circle45" />
            </g>
          </g>
        </g>
      </g>
    </g>
  </g>
  <g
     id="footer"
     class="SourcesFooter"
     style="fill:#5b5b5b"
     transform="translate(-16,-16)">
    <g
       id="sources"
       class="markdown-text-wrap">
      <text
         x="16"
         y="580.90002"
         style="font-size:13.5px;line-height:1.2"
         id="text47"><tspan
           x="16"
           y="580.90002"
           id="tspan47"><tspan
   style="font-weight:700"
   id="tspan46">Data source:</tspan> Dongarra et al. (2023)</tspan></text>
    </g>
    <text
       id="origin-url"
       font-size="13.5px"
       x="528.59998"
       y="580.90002"><tspan
         x="528.63"
         y="580.89502"
         id="tspan48"><a
   target="_blank"
   style="fill: #5b5b5b;"
   href="https://ourworldindata.org/technological-change"
   id="a47">OurWorldInData.org/technological-change</a> | <a
   target="_blank"
   style="fill: #5b5b5b;"
   href="https://creativecommons.org/licenses/by/4.0/"
   id="a48">CC BY</a></tspan></text>
  </g>
  <line
     id="separator-line"
     x1="0"
     y1="584"
     x2="818"
     y2="584"
     stroke="#e7e7e7" />
</svg>
